~~~~~~~~~~~~~~~~~~~~~~~~~~~~~~~~~~~~~~~~~~~~~~~~~~~~~~~~~~~~~~~~~~~
Title: Year One[2009]
~~~~~~~~~~~~~~~~~~~~~~~~~~~~~~~~~~~~~~~~~~~~~~~~~~~~~~~~~~~~~~~~~~~
~~~~~~~~~~~~~~~~~~~~~~~~~~~~~~~~~~~~~~~~~~~~~~~~~~~~~~~~~~~~~~~~~~~
Release Notes

Genre: Adventure | Comedy

Rated: PG-13 for crude and sexual content throughout, brief strong 
      language and comic violence. (edited; originally Rated R for 
      some sexual content and language.) 

Movie Information: http://www.imdb.com/title/tt1045778/

Plot: Zed, a prehistoric would-be hunter, eats from a tree of 
     forbidden fruit and is banished from his tribe

Format                           : AVI
Format/Info                      : Audio Video Interleave
File size                        : 1.17 GiB
Duration                         : 1h 39mn
Overall bit rate                 : 1 684 Kbps
Movie name                       : Year One[2009]DvDRip[Eng]-Uvall
Writing application              : Lavf52.33.0

Video
Format                           : MPEG-4 Visual
Format profile                   : Simple@L3
Format settings, BVOP            : No
Format settings, QPel            : No
Format settings, GMC             : No warppoints
Format settings, Matrix          : Default (H.263)
Codec ID                         : XVID
Codec ID/Hint                    : XviD
Duration                         : 1h 39mn
Bit rate                         : 1 289 Kbps
Width                            : 704 pixels
Height                           : 382 pixels
Display aspect ratio             : 16:9
Frame rate                       : 23.976 fps
Resolution                       : 24 bits
Colorimetry                      : 4:2:0
Scan type                        : Progressive
Bits/(Pixel*Frame)               : 0.200
Stream size                      : 917 MiB (77%)
Writing library                  : XviD 1.2.1 (UTC 2008-12-04)

Audio
Format                           : AC-3
Format/Info                      : Audio Coding 3
Codec ID                         : 2000
Duration                         : 1h 39mn
Bit rate mode                    : Constant
Bit rate                         : 384 Kbps
Channel(s)                       : 6 channels
Channel positions                : Front: L C R, Surround: L R, LFE
Sampling rate                    : 48.0 KHz
Stream size                      : 273 MiB (23%)
Alignment                        : Aligned on interleaves
Interleave, duration             : 32 ms (0.77 video frame)
~~~~~~~~~~~~~~~~~~~~~~~~~~~~~~~~~~~~~~~~~~~~~~~~~~~~~~~~~~~~~~~~~~~
~~~~~~~~~~~~~~~~~~~~~~~~~~~~~~~~~~~~~~~~~~~~~~~~~~~~~~~~~~~~~~~~~~~
Posted By: Uvall
~~~~~~~~~~~~~~~~~~~~~~~~~~~~~~~~~~~~~~~~~~~~~~~~~~~~~~~~~~~~~~~~~~~